<?xml version="1.0" standalone="no"?><!DOCTYPE svg PUBLIC "-//W3C//DTD SVG 1.1//EN" "http://www.w3.org/Graphics/SVG/1.1/DTD/svg11.dtd"><svg t="1576906460761" class="icon" viewBox="0 0 1024 1024" version="1.1" xmlns="http://www.w3.org/2000/svg" p-id="4200" xmlns:xlink="http://www.w3.org/1999/xlink" width="200" height="200"><defs><style type="text/css"></style></defs><path d="M731.428571 219.428571h54.857143a18.285714 18.285714 0 0 1 18.285715 18.285715v548.571428a18.285714 18.285714 0 0 1-18.285715 18.285715h-54.857143a73.142857 73.142857 0 0 0-73.142857 73.142857v73.142857a73.142857 73.142857 0 0 0 73.142857 73.142857h182.857143a109.714286 109.714286 0 0 0 109.714286-109.714286V109.714286a109.714286 109.714286 0 0 0-109.714286-109.714286H731.428571a73.142857 73.142857 0 0 0-73.142857 73.142857v73.142857a73.142857 73.142857 0 0 0 73.142857 73.142857z" p-id="4201" fill="#ffd04b"></path><path d="M364.068571 384h280.32a73.142857 73.142857 0 0 1 73.142858 73.142857v109.714286a73.142857 73.142857 0 0 1-73.142858 73.142857H364.068571a18.285714 18.285714 0 0 0-18.285714 18.285714v85.577143a36.571429 36.571429 0 0 1-60.16 27.794286L12.8 539.794286a36.571429 36.571429 0 0 1 0-54.857143L285.622857 252.342857a36.571429 36.571429 0 0 1 60.16 27.794286V365.714286a18.285714 18.285714 0 0 0 18.285714 18.285714z" p-id="4202" fill="#ffd04b"></path></svg>