<?xml version="1.0" standalone="no"?><!DOCTYPE svg PUBLIC "-//W3C//DTD SVG 1.1//EN" "http://www.w3.org/Graphics/SVG/1.1/DTD/svg11.dtd"><svg t="1585380593383" class="icon" viewBox="0 0 1024 1024" version="1.1" xmlns="http://www.w3.org/2000/svg" p-id="3579" xmlns:xlink="http://www.w3.org/1999/xlink" width="200" height="200"><defs><style type="text/css"></style></defs><path d="M659.730286 420.918857a18.285714 18.285714 0 0 1-16.438857-26.276571 144.969143 144.969143 0 0 0 14.592-63.780572v-36.571428c0-85.174857-74.477714-123.300571-148.278858-123.300572a18.285714 18.285714 0 1 1 0-36.571428c108.836571 0 184.850286 65.737143 184.850286 159.872v36.571428a180.937143 180.937143 0 0 1-18.267428 79.744 18.249143 18.249143 0 0 1-16.457143 10.313143z" p-id="3580"></path><path d="M419.291429 415.451429a18.285714 18.285714 0 0 1-6.765715-35.273143 156.306286 156.306286 0 0 0 98.870857-145.901715c0-25.472-6.217143-50.724571-17.956571-73.051428a18.285714 18.285714 0 0 1 32.365714-17.042286 193.974857 193.974857 0 0 1 22.180572 90.093714c0 79.744-47.853714 150.363429-121.910857 179.876572a18.468571 18.468571 0 0 1-6.784 1.298286zM822.857143 532.260571h-71.149714a18.285714 18.285714 0 1 1 0-36.571428H822.857143c20.626286 0 37.394286-16.768 37.394286-37.394286s-16.768-37.376-37.394286-37.376h-162.029714a18.285714 18.285714 0 1 1 0-36.571428H822.857143c40.777143 0 73.965714 33.170286 73.965714 73.965714S863.634286 532.260571 822.857143 532.260571z" p-id="3581"></path><path d="M803.035429 643.620571h-71.149715a18.285714 18.285714 0 1 1 0-36.571428h71.149715c20.626286 0 37.394286-16.768 37.394285-37.394286s-16.768-37.394286-37.394285-37.394286H748.434286a18.285714 18.285714 0 1 1 0-36.571428h54.601143c40.777143 0 73.965714 33.170286 73.965714 73.965714s-33.188571 73.965714-73.965714 73.965714z" p-id="3582"></path><path d="M767.744 754.980571h-71.149714a18.285714 18.285714 0 1 1 0-36.571428h71.149714c20.626286 0 37.394286-16.768 37.394286-37.394286s-16.768-37.394286-37.394286-37.394286H713.142857a18.285714 18.285714 0 1 1 0-36.571428h54.601143c40.777143 0 73.965714 33.170286 73.965714 73.965714s-33.170286 73.965714-73.965714 73.965714z" p-id="3583"></path><path d="M750.573714 866.340571h-71.149714a18.285714 18.285714 0 1 1 0-36.571428h71.149714c20.626286 0 37.394286-16.768 37.394286-37.394286s-16.768-37.394286-37.394286-37.394286h-54.601143a18.285714 18.285714 0 1 1 0-36.571428h54.601143c40.777143 0 73.965714 33.170286 73.965715 73.965714s-33.188571 73.965714-73.965715 73.965714z" p-id="3584"></path><path d="M694.326857 866.340571H456.32c-70.564571 0-128-57.435429-128-128v-237.714285a128.256 128.256 0 0 1 85.284571-120.704 18.249143 18.249143 0 0 1 23.332572 11.136 18.249143 18.249143 0 0 1-11.117714 23.332571 91.629714 91.629714 0 0 0-60.928 86.235429v237.714285c0 50.413714 41.014857 91.428571 91.428571 91.428572h238.006857a18.285714 18.285714 0 1 1 0 36.571428z" p-id="3585"></path><path d="M273.462857 889.563429h-54.857143c-50.413714 0-91.428571-41.014857-91.428571-91.428572v-365.714286c0-50.413714 41.014857-91.428571 91.428571-91.428571h54.857143c50.413714 0 91.428571 41.014857 91.428572 91.428571v365.714286c0 50.413714-41.014857 91.428571-91.428572 91.428572z m-54.857143-512c-30.244571 0-54.857143 24.612571-54.857143 54.857142v365.714286c0 30.244571 24.612571 54.857143 54.857143 54.857143h54.857143c30.244571 0 54.857143-24.612571 54.857143-54.857143v-365.714286c0-30.244571-24.612571-54.857143-54.857143-54.857142h-54.857143z" p-id="3586"></path><path d="M246.034286 823.643429c-26.898286 0-48.768-21.869714-48.768-48.749715s21.869714-48.749714 48.768-48.749714 48.768 21.869714 48.768 48.749714-21.869714 48.749714-48.768 48.749715z m0-60.928c-6.729143 0-12.196571 5.467429-12.196572 12.178285a12.196571 12.196571 0 0 0 24.393143 0 12.196571 12.196571 0 0 0-12.196571-12.178285z" p-id="3587"></path></svg>