<?xml version="1.0" standalone="no"?><!DOCTYPE svg PUBLIC "-//W3C//DTD SVG 1.1//EN" "http://www.w3.org/Graphics/SVG/1.1/DTD/svg11.dtd"><svg t="1576899191597" class="icon" viewBox="0 0 1024 1024" version="1.1" xmlns="http://www.w3.org/2000/svg" p-id="3794" xmlns:xlink="http://www.w3.org/1999/xlink" width="200" height="200"><defs><style type="text/css"></style></defs><path d="M982.862052 804.664259c-25.592502-60.582251-62.281753-114.966318-109.068046-161.752612S772.623645 559.536073 712.041394 533.843601c-23.693059-9.997071-47.885971-18.094699-72.478766-24.392854 28.891536-12.996193 55.383774-31.290833 78.477009-54.284097 50.085327-50.085327 77.577272-116.56585 77.577272-187.445084s-27.591916-137.359758-77.577272-187.445085C667.95431 30.291126 601.373816 2.699209 530.594552 2.699209S393.234794 30.291126 343.249439 80.376452 265.572196 196.942302 265.572196 267.721566s27.591916 137.359758 77.577272 187.445084c20.194084 20.194084 42.987406 36.689251 67.680172 49.185591-32.490481 6.698038-64.181197 16.495167-94.972176 29.59133-60.582251 25.592502-114.966318 62.281753-161.752612 109.068047S70.729279 744.082007 45.136776 804.664259C18.644538 867.445865 5.148492 934.026359 5.148492 1002.706238l0.09997 21.293762H1022.850337l0.099971-21.293762c-0.099971-68.679879-13.596017-135.260373-40.088256-198.041979zM305.56048 267.721566c0-124.063653 100.970419-225.034072 225.034072-225.034072s225.034072 100.970419 225.034072 225.034072-100.970419 225.034072-225.034072 225.034072-225.034072-100.970419-225.034072-225.034072zM45.536659 984.111686C55.333789 734.184907 261.673338 533.843601 513.999414 533.843601c252.326076 0 458.665625 200.241336 468.462755 450.168114H45.536659z" fill="#c0c4cc" p-id="3795"></path></svg>